<svg xmlns="http://www.w3.org/2000/svg" viewBox="0 0 800 480" fill="none" role="img" aria-label="Siphon coffee brewing">
  <defs>
    <linearGradient id="bg" x1="0%" y1="0%" x2="100%" y2="100%">
      <stop offset="0%" stop-color="#16100c"/>
      <stop offset="50%" stop-color="#0d0907"/>
      <stop offset="100%" stop-color="#0a0705"/>
    </linearGradient>
    <radialGradient id="glow" cx="50%" cy="35%" r="60%">
      <stop offset="0%" stop-color="rgba(217,119,6,0.2)"/>
      <stop offset="100%" stop-color="rgba(217,119,6,0)"/>
    </radialGradient>
    <linearGradient id="glass" x1="0%" y1="0%" x2="0%" y2="100%">
      <stop offset="0%" stop-color="rgba(255,255,255,0.16)"/>
      <stop offset="100%" stop-color="rgba(255,255,255,0.04)"/>
    </linearGradient>
    <linearGradient id="flame" x1="50%" y1="100%" x2="50%" y2="0%">
      <stop offset="0%" stop-color="rgba(217,119,6,0.15)"/>
      <stop offset="50%" stop-color="rgba(251,191,36,0.35)"/>
      <stop offset="100%" stop-color="rgba(254,243,199,0.5)"/>
    </linearGradient>
  </defs>
  <rect width="800" height="480" fill="url(#bg)"/>
  <rect width="800" height="480" fill="url(#glow)"/>
  <ellipse cx="400" cy="430" rx="200" ry="28" fill="rgba(0,0,0,0.42)"/>
  <ellipse cx="400" cy="118" rx="92" ry="44" fill="url(#glass)" stroke="rgba(255,255,255,0.14)" stroke-width="2"/>
  <path d="M360 150v72" stroke="rgba(255,255,255,0.1)" stroke-width="3"/>
  <path d="M440 150v72" stroke="rgba(255,255,255,0.1)" stroke-width="3"/>
  <rect x="352" y="218" width="16" height="28" rx="4" fill="rgba(255,255,255,0.08)"/>
  <rect x="432" y="218" width="16" height="28" rx="4" fill="rgba(255,255,255,0.08)"/>
  <path d="M360 246h80" stroke="rgba(217,119,6,0.35)" stroke-width="2"/>
  <ellipse cx="400" cy="300" rx="78" ry="38" fill="url(#glass)" stroke="rgba(255,255,255,0.12)" stroke-width="2"/>
  <ellipse cx="400" cy="318" rx="58" ry="18" fill="rgba(60,38,24,0.65)"/>
  <path d="M322 300h156" stroke="rgba(255,255,255,0.08)" stroke-width="1.5"/>
  <path d="M388 360v36" stroke="rgba(255,255,255,0.12)" stroke-width="2"/>
  <ellipse cx="400" cy="404" rx="34" ry="10" fill="rgba(255,255,255,0.06)" stroke="rgba(255,255,255,0.1)" stroke-width="1.5"/>
  <path d="M400 404c-8 18-8 34 0 52 8-18 8-34 0-52z" fill="url(#flame)"/>
  <circle cx="400" cy="392" r="6" fill="rgba(251,191,36,0.55)"/>
</svg>
